<?xml version="1.0" standalone="no"?>
<!DOCTYPE svg PUBLIC "-//W3C//DTD SVG 1.1//EN" "http://www.w3.org/Graphics/SVG/1.1/DTD/svg11.dtd" >
<svg xmlns="http://www.w3.org/2000/svg">
<metadata>Generated by IcoMoon</metadata>
<defs>
<font id="myaxa" horiz-adv-x="1024">
<font-face units-per-em="1024" ascent="960" descent="-64" />
<missing-glyph horiz-adv-x="1024" />
<glyph unicode="&#x20;" horiz-adv-x="512" d="" />
<glyph unicode="&#xe900;" glyph-name="myaxa-documents" d="M703.816 835.604h42.824v-793.661h-42.824v793.661zM760.361 812.339h42.824v-749.998h-42.824v749.998zM220.815 140.452l469.279-98.509v793.661l-469.279-65.679v-629.473zM623.555 337.756l-336.179 32.338v42.824l336.179-16.691v-58.47zM623.555 477.757l-336.179 8.95v42.803h336.179v-51.753zM284.058 654.848l336.179 18.903v-50.688l-336.179-11.039v42.824zM284.058 293.356l336.179-35.922v-55.521l-336.179 48.62v42.824z" />
<glyph unicode="&#xe901;" glyph-name="close" d="M834.662 211.702l-244.019 244.019 236.851 236.851c0 0 0 0 0 0 19.579 19.579 19.579 51.343 0 70.922 0 0 0 0 0 0-19.579 19.579-51.323 19.599-70.922 0.020l-236.851-236.851-244.019 243.999c-19.292 19.292-50.565 19.292-69.857 0s-19.292-50.565 0-69.857l243.999-243.999-260.772-260.772c-18.964-19.476-18.964-50.504 0-69.98 19.333-19.866 51.098-20.275 70.943-0.963l260.751 260.751 243.999-244.019c19.292-19.292 50.565-19.313 69.878-0.020 19.313 19.313 19.313 50.606 0.020 69.898z" />
<glyph unicode="&#xe902;" glyph-name="declare-a-claim" d="M521.933 816.824h-19.866c-218.583 0-407.347-140.616-407.347-315.474 0-100.311 58.941-187.453 150.323-245.821l-0.102-0.758-59.023-157.696c-6.431-17.203 0.86-23.020 16.22-12.964l173.875 114.053c37.294-9.114 95.642-15.606 136.008-15.606h9.933c218.583 0 407.347 142.254 407.347 317.133-0.020 174.879-188.785 317.133-407.368 317.133zM537.19 312.525h-50.381v50.401h50.401v-50.401zM533.873 419.656h-43.725l-9.011 308.736h61.747l-9.011-308.736z" />
<glyph unicode="&#xe903;" glyph-name="documents" d="M306.012 532.828h403.907v-56.545h-403.907v56.545zM306.012 298.557h403.907v-56.545h-403.907v56.545zM306.012 419.717h403.907v-56.545h-403.907v56.545zM306.012 637.829h185.795v-56.545h-185.795v56.545zM762.245 821.76h-510.075c-28.262 0-51.18-22.917-51.18-51.18v-663.183c0-28.283 22.917-51.18 51.18-51.18h510.075c28.283 0 51.18 22.917 51.18 51.18v0 663.183c0 28.262-22.917 51.18-51.18 51.18zM787.845 135.107v0c0-25.907-21.012-46.899-46.92-46.899h-467.456c-25.907 0-46.899 20.992-46.899 46.899v607.764c0 25.907 20.992 46.899 46.899 46.899h467.456c25.907 0 46.899-20.992 46.899-46.899v-607.764z" />
<glyph unicode="&#xe904;" glyph-name="hamburger" d="M809.677 682.619h-591.38c-25.6 0-46.531 20.931-46.531 46.531v0c0 25.6 20.951 46.531 46.531 46.531h591.38c25.6 0 46.531-20.931 46.531-46.531v0c0-25.6-20.931-46.531-46.531-46.531zM809.677 401.469h-591.38c-25.6 0-46.531 20.931-46.531 46.531v0c0 25.6 20.931 46.531 46.531 46.531h591.38c25.6 0 46.531-20.931 46.531-46.531v0c0-25.6-20.931-46.531-46.531-46.531zM809.677 120.32h-591.38c-25.6 0-46.531 20.931-46.531 46.531v0c0 25.6 20.931 46.531 46.531 46.531h591.38c25.6 0 46.531-20.931 46.531-46.531v0c0-25.6-20.931-46.531-46.531-46.531z" />
<glyph unicode="&#xe905;" glyph-name="icon-alert-bell" d="M436.818 106.557c-1.044-5.673-1.618-11.592-1.618-17.572 0-49.869 37.581-90.337 83.988-90.337 46.387 0 84.009 40.448 84.009 90.337 0 6.001-0.532 11.899-1.597 17.572h-164.782zM443.679 793.62c-68.997-18.555-113.541-51.569-143.053-111.596-47.718-97.157-16.22-261.878-60.088-363.295-29.245-67.686-76.022-101.54-148.746-131.645 0-15.237 0-30.495 0-45.773 260.854-0.041 536.248 0.041 806.707 0 16.261 0 32.502 0 48.722 0 0 17.183 0 34.324 0 51.528-24.207 10.015-44.524 14.664-62.956 25.702-114.831 69.018-106.148 221.573-117.248 366.223-8.417 109.036-77.292 177.971-163.082 208.855 19.784 119.091-178.196 112.435-160.256 0z" />
<glyph unicode="&#xe906;" glyph-name="icon-axa-location" d="M500.634 882.217c-135.823 0-245.965-110.141-245.965-245.965 0-55.296 18.289-106.353 49.029-147.415 0.102-0.061 0.164-0.164 0.164-0.205 5.857-8.602 194.253-284.856 196.772-468.378 2.54 183.521 190.915 459.776 196.772 468.378 0.102 0.143 0.143 0.205 0.143 0.205 30.781 41.062 49.029 92.119 49.029 147.415 0.020 135.803-110.121 245.965-245.944 245.965zM500.634 752.742c61.481 0 111.35-49.869 111.35-111.329 0-61.481-49.869-111.329-111.35-111.329-61.46 0-111.309 49.869-111.309 111.329-0.020 61.46 49.848 111.329 111.309 111.329z" />
<glyph unicode="&#xe907;" glyph-name="icon-health-simulator" d="M259.543 98.836c63.652-39.977 154.624-73.073 235.52-73.073 83.231 0 145.879 15.626 210.76 57.733l-210.76 354.529-235.52-339.19zM485.007 504.095l407.511-122.491c7.209 25.211 11.837 53.309 11.837 97.71 0 223.785-180.756 405.279-403.661 405.279-223.027 0-403.804-181.494-403.804-405.279 0-144.568 39.772-238.633 153.231-310.292l235.151 334.643-0.266 0.43zM911.36 321.802l-381.686 129.434 219.955-339.538c75.182 49.213 132.567 123.167 161.731 210.104z" />
<glyph unicode="&#xe908;" glyph-name="logout" d="M869.888 587.059c-17.019 30.003-38.482 58.348-64.061 83.948-25.58 25.58-53.924 47.022-84.029 64.061-24.31 13.865-49.787 24.986-75.858 33.26v-150.651c22.241-11.899 42.906-27.054 61.215-45.363 97.014-97.014 99.676-252.989 8.069-353.26-2.949-3.256-5.919-6.39-9.052-9.544-2.683-2.662-5.427-5.325-8.274-7.885-47.124-42.701-107.438-66.007-171.602-66.007-68.383 0-132.649 26.563-180.941 74.895-96.543 96.584-99.594 251.965-9.073 352.236 2.56 2.949 5.304 5.796 8.069 8.561 3.052 3.052 6.103 6.001 9.257 8.745 17.121 15.647 36.004 28.836 56.177 39.158v150.077c-54.026-16.63-105.185-45.056-149.361-85.32-5.018-4.526-9.933-9.155-14.766-13.967-2.458-2.458-4.813-4.813-7.086-7.291-121.528-128.799-139.817-318.915-55.706-466.616l-1.27-1.27c17.019-30.024 38.38-58.348 64.061-83.927s54.026-47.043 84.029-64.061l1.188 1.188c60.416-34.345 127.816-51.958 195.42-51.958 88.453 0 177.029 29.532 249.528 88.658 9.933 8.069 19.579 16.835 28.918 26.173 0.389 0.287 0.676 0.594 1.085 0.983 128.717 128.717 150.159 324.239 64.061 475.177zM458.977 878.797h137.748v-482.14h-137.748v482.14z" />
<glyph unicode="&#xe909;" glyph-name="my-axa-coins" d="M588.042 343.654c1.249-5.284 2.089-10.609 2.089-16.077 0-17.080 0-15.094 0-32.174 0-71.045-107.991-128.635-241.213-128.635-133.202 0-241.213 57.59-241.213 128.635 0 17.080 0 15.094 0 32.174 0 5.468 0.84 10.793 2.089 16.077 14.848-63.447 116.122-112.558 239.124-112.558 122.982 0 224.256 49.111 239.124 112.558zM348.918 134.615c-122.982 0-224.256 49.111-239.124 112.558-1.249-5.284-2.089-10.609-2.089-16.077 0-17.080 0-15.094 0-32.174 0-71.045 107.991-128.635 241.213-128.635 133.202 0 241.213 57.59 241.213 128.635 0 17.080 0 15.094 0 32.174 0 5.468-0.84 10.793-2.089 16.077-14.868-63.447-116.142-112.558-239.124-112.558zM348.918 520.54c-133.202 0-241.213-57.61-241.213-128.655s107.991-128.635 241.213-128.635c133.202 0 241.213 57.59 241.213 128.635 0 71.066-108.012 128.655-241.213 128.655zM638.362 263.27c-5.448 0-10.732 0.225-16.077 0.389 0-34.427 0-62.444 0-64.287 5.345-0.164 10.65-0.43 16.077-0.43 133.202 0 241.213 57.59 241.213 128.655 0 17.080 0 15.073 0 32.154 0 5.468-0.84 10.793-2.089 16.077-14.868-63.468-116.142-112.558-239.124-112.558zM638.362 584.868c133.222 0 241.213 57.59 241.213 128.655 0 71.045-107.991 128.635-241.213 128.635s-241.213-57.59-241.213-128.655c0-71.045 107.991-128.635 241.213-128.635zM638.362 552.714c-122.982 0-224.256 49.111-239.124 112.558-1.249-5.284-2.089-10.609-2.089-16.077 0-17.080 0-15.073 0-32.154 0-27.3 16.077-52.572 43.295-73.421 47.022-9.544 87.9-26.173 118.866-48.026 24.801-4.588 51.323-7.209 79.053-7.209 133.202 0 241.213 57.61 241.213 128.655 0 17.080 0 15.073 0 32.154 0 5.468-0.84 10.813-2.089 16.077-14.868-63.447-116.142-112.558-239.124-112.558zM638.362 456.233c-13.537 0-26.726 0.676-39.649 1.843 14.95-19.968 23.45-42.127 23.532-65.741 5.325-0.164 10.67-0.43 16.118-0.43 133.202 0 241.213 57.59 241.213 128.655 0 17.080 0 15.073 0 32.154 0 5.468-0.84 10.813-2.089 16.077-14.868-63.447-116.142-112.558-239.124-112.558zM638.362 359.752c-5.448 0-10.732 0.225-16.077 0.389 0-17.879 0-40.98 0-64.287 5.345-0.164 10.65-0.43 16.077-0.43 133.202 0 241.213 57.59 241.213 128.655 0 17.080 0 15.073 0 32.154 0 5.468-0.84 10.813-2.089 16.077-14.868-63.447-116.142-112.558-239.124-112.558z" />
<glyph unicode="&#xe90a;" glyph-name="myaxa-agent-arrow" d="M873.636 525.742l-284.14 284.14c-42.803 42.803-112.189 42.803-154.993 0l-284.14-284.14c-42.803-42.803-42.803-112.189 0-154.972l97.014-97.014v140.534c0 58.778 48.394 106.414 108.093 106.414h143.913v73.318l116.347-114.34-116.347-114.34v73.318h-143.913c-14.049 0-25.436-11.203-25.436-25.027l-8.868-213.668 113.336-113.336c42.803-42.803 112.189-42.803 154.993 0l284.14 284.14c42.803 42.783 42.803 112.169 0 154.972z" />
<glyph unicode="&#xe90b;" glyph-name="myaxa-arrow-downleft" d="M640.328 693.412l-289.239-366.449-36.495 310.067c-2.56 21.729-22.446 37.417-44.175 34.877-21.729-2.56-37.417-22.446-34.857-44.175l46.551-395.469c-0.328-2.97-0.43-5.98-0.061-9.073 1.311-11.162 7.229-20.664 15.565-26.972 0 0 0 0 0.020-0.020 0.184-0.164 0.328-0.348 0.532-0.512 0 0 0.020 0 0.020-0.020 2.089-1.638 4.342-3.072 6.717-4.28 0.225-0.102 0.451-0.164 0.676-0.266 6.595-3.215 14.131-4.71 21.914-3.809 3.092 0.369 6.001 1.147 8.806 2.171l395.469 46.551c21.729 2.56 37.417 22.446 34.857 44.175v0c-2.56 21.729-22.426 37.417-44.175 34.857l-307.958-36.25 288.317 365.261c13.558 17.183 10.609 42.332-6.574 55.89-17.203 13.578-42.353 10.629-55.91-6.554z" />
<glyph unicode="&#xe90c;" glyph-name="myaxa-arrow-downright" d="M361.841 693.412l289.219-366.449 36.495 310.047c2.56 21.729 22.446 37.417 44.175 34.877 21.729-2.56 37.417-22.446 34.857-44.175l-46.551-395.469c0.328-2.97 0.43-5.98 0.061-9.073-1.311-11.162-7.229-20.664-15.565-26.972 0 0 0 0-0.020-0.020-0.184-0.164-0.328-0.348-0.532-0.512 0 0-0.020 0-0.020-0.020-2.089-1.638-4.342-3.072-6.717-4.28-0.225-0.102-0.451-0.164-0.676-0.266-6.595-3.215-14.131-4.71-21.914-3.809-3.092 0.369-6.001 1.147-8.806 2.171l-395.469 46.551c-21.729 2.56-37.417 22.446-34.857 44.175v0c2.56 21.729 22.426 37.417 44.175 34.857l307.958-36.25-288.297 365.302c-13.558 17.183-10.609 42.332 6.574 55.89s42.332 10.609 55.91-6.574z" />
<glyph unicode="&#xe90d;" glyph-name="myaxa-arrow-next" d="M224.113 486.298h466.821l-220.733 220.754c-15.483 15.483-15.483 40.796 0 56.279s40.796 15.483 56.279 0l281.58-281.58c2.54-1.577 4.956-3.379 7.168-5.571 7.946-7.946 11.735-18.473 11.53-28.938v-0.020c0-0.246 0.082-0.471 0.082-0.737 0 0 0-0.020 0-0.020 0-2.662-0.287-5.304-0.799-7.905-0.041-0.246-0.143-0.451-0.205-0.696-1.577-7.168-5.038-14.008-10.588-19.558-2.191-2.191-4.628-3.994-7.168-5.571l-281.62-281.539c-15.483-15.483-40.796-15.483-56.279 0v0c-15.483 15.483-15.483 40.796 0 56.279l219.259 219.259h-465.326c-21.893-0.020-39.793 17.9-39.793 39.772s17.9 39.793 39.793 39.793z" />
<glyph unicode="&#xe90e;" glyph-name="myaxa-arrow-notails-next" d="M697.324 476.549c0.020 1.659 0.020 3.297-0.143 4.956-0.020 0.164-0.061 0.328-0.082 0.512-0.881 7.803-3.666 15.462-8.806 22.077l-289.464 373.064c-14.909 19.21-42.824 22.733-62.034 7.823s-22.733-42.824-7.823-62.034l268.759-346.399-268.759-346.399c-14.909-19.21-11.387-47.124 7.823-62.034s47.124-11.387 62.034 7.823l289.464 373.084c5.14 6.615 7.926 14.295 8.806 22.077 0.020 0.164 0.061 0.328 0.082 0.492 0.164 1.659 0.164 3.297 0.143 4.956z" />
<glyph unicode="&#xe90f;" glyph-name="myaxa-arrow-notails-prev" d="M319.734 476.549c-0.020 1.659-0.020 3.297 0.143 4.956 0.020 0.164 0.061 0.328 0.082 0.512 0.881 7.803 3.666 15.462 8.806 22.077l289.464 373.064c14.909 19.21 42.824 22.733 62.034 7.823s22.733-42.824 7.823-62.034l-268.739-346.399 268.759-346.399c14.909-19.21 11.387-47.124-7.823-62.034s-47.124-11.387-62.034 7.823l-289.485 373.084c-5.14 6.615-7.926 14.295-8.806 22.077-0.020 0.164-0.061 0.328-0.082 0.492-0.164 1.659-0.164 3.297-0.143 4.956z" />
<glyph unicode="&#xe910;" glyph-name="myaxa-arrow-prev" d="M787.005 486.298h-466.821l220.754 220.754c15.483 15.483 15.483 40.796 0 56.279s-40.796 15.483-56.279 0l-281.58-281.559c-2.54-1.577-4.956-3.379-7.168-5.571-7.946-7.946-11.735-18.473-11.53-28.938 0 0 0-0.020 0-0.020 0-0.246-0.061-0.471-0.061-0.737 0 0 0-0.020 0-0.020 0-2.662 0.287-5.304 0.799-7.905 0.041-0.246 0.143-0.451 0.205-0.696 1.577-7.168 5.038-14.008 10.588-19.558 2.191-2.191 4.628-3.994 7.168-5.571l281.58-281.58c15.483-15.483 40.796-15.483 56.279 0v0c15.483 15.483 15.483 40.796 0 56.279l-219.259 219.259h465.326c21.893 0 39.793 17.9 39.793 39.793s-17.9 39.793-39.793 39.793z" />
<glyph unicode="&#xe911;" glyph-name="myaxa-arrow-upleft" d="M640.328 202.158l-289.239 366.428-36.495-310.047c-2.56-21.729-22.446-37.417-44.175-34.877-21.729 2.56-37.417 22.446-34.857 44.175l46.551 395.469c-0.328 2.97-0.43 5.98-0.061 9.073 1.311 11.162 7.229 20.664 15.565 26.972 0 0 0 0 0.020 0.020 0.184 0.164 0.328 0.348 0.532 0.512 0 0 0.020 0 0.020 0.020 2.089 1.638 4.342 3.072 6.717 4.28 0.225 0.102 0.451 0.164 0.676 0.266 6.595 3.215 14.131 4.71 21.914 3.809 3.092-0.369 6.001-1.147 8.806-2.171l395.469-46.551c21.729-2.56 37.417-22.446 34.857-44.175v0c-2.56-21.729-22.426-37.417-44.175-34.857l-307.958 36.25 288.317-365.261c13.558-17.183 10.609-42.332-6.574-55.89-17.203-13.599-42.353-10.629-55.91 6.554z" />
<glyph unicode="&#xe912;" glyph-name="myaxa-car-front" d="M848.65 578.376h-59.924c-3.461 0-6.513-1.434-8.888-3.564-19.169 30.556-38.994 55.030-54.354 70.41-53.473 53.473-374.333 53.473-427.827 0-15.319-15.34-34.98-39.649-54.047-69.98-2.294 1.823-5.079 3.113-8.274 3.113h-59.945c-7.352 0-13.353-6.021-13.353-13.373v-26.952c0-7.352 5.898-14.5 13.107-15.892l36.352-6.922c-31.396-70.021-49.889-157.123-20.808-244.367v-51.835c0-14.766 3.748-26.726 8.376-26.726h68.485c4.628 0 8.376 11.94 8.376 26.726v42.353c61.44-5.857 148.419-12.268 235.622-12.268 86.405 0 174.387 6.287 235.643 12.104v-42.189c0-14.766 3.809-26.726 8.397-26.726h68.465c4.608 0 8.397 11.94 8.397 26.726l-0.061 51.835c29.041 87.183 10.609 174.203-20.726 244.224l37.233 7.086c7.25 1.393 13.107 8.499 13.107 15.892v26.952c0.041 7.373-6.001 13.373-13.353 13.373zM274.248 361.124c-26.767 0-48.456 21.709-48.456 48.456s21.688 48.456 48.456 48.456c26.747 0 48.435-21.709 48.435-48.456s-21.668-48.456-48.435-48.456zM233.492 499.896c25.661 58.737 61.399 104.755 83.026 126.423 15.647 15.626 89.313 32.276 195.011 32.276 105.718 0 179.384-16.63 195.011-32.276 21.668-21.668 57.385-67.645 83.046-126.423-57.037-6.308-168.079 8.294-278.057 8.294-109.957 0-221.020-14.602-278.036-8.294zM748.851 361.124c-26.747 0-48.476 21.709-48.476 48.456s21.709 48.456 48.476 48.456c26.747 0 48.476-21.709 48.476-48.456s-21.729-48.456-48.476-48.456z" />
<glyph unicode="&#xe913;" glyph-name="myaxa-caution" d="M895.836 172.81c-21.361 37.888-327.434 560.865-346.542 592.855-3.809 6.636-9.318 12.145-15.954 15.954-20.726 11.899-47.165 4.772-59.085-15.954-26.030-44.462-330.568-565.453-345.661-591.708-4.444-7.107-6.697-15.36-6.472-23.736 0.614-23.593 20.234-42.209 43.807-41.595h692.716c7.987-0.164 15.852 1.925 22.692 6.042 20.070 12.063 26.563 38.093 14.5 58.143zM535.265 570.286l-6.799-232.694h-32.952l-6.799 232.694h46.551zM536.474 243.794h-48.947v48.947h48.947v-48.947z" />
<glyph unicode="&#xe914;" glyph-name="myaxa-arrow-upright" d="M361.841 202.158l289.219 366.428 36.495-310.047c2.56-21.729 22.446-37.417 44.175-34.877 21.729 2.56 37.417 22.446 34.857 44.175l-46.551 395.469c0.328 2.97 0.43 5.98 0.061 9.073-1.311 11.162-7.229 20.664-15.565 26.972 0 0 0 0 0 0-0.205 0.164-0.328 0.369-0.532 0.512l-0.020 0.020c-2.089 1.638-4.342 3.072-6.717 4.28-0.225 0.102-0.451 0.164-0.676 0.266-6.595 3.215-14.131 4.71-21.914 3.809-3.092-0.369-6.001-1.147-8.806-2.171l-395.469-46.551c-21.729-2.56-37.417-22.446-34.857-44.175v0c2.56-21.729 22.426-37.417 44.175-34.857l307.958 36.25-288.317-365.281c-13.558-17.183-10.609-42.332 6.574-55.89s42.332-10.588 55.91 6.595z" />
<glyph unicode="&#xe91b;" glyph-name="myaxa-email" d="M192.43 685.097c5.55 2.048 11.489 3.338 17.756 3.338h603.648c6.267 0 12.206-1.29 17.756-3.338l-270.479-254.792c-27.525-25.948-70.676-25.948-98.222 0l-270.459 254.792zM857.436 232.325c4.69 7.721 7.537 16.691 7.537 26.399v378.552c0 6.881-1.393 13.414-3.871 19.415l-253.092-238.428 249.426-185.938zM585.114 397.046c-21.012-18.002-47.022-27.116-73.114-27.116s-52.122 9.114-73.114 27.116l-248.73-185.405c6.164-2.621 12.902-4.076 20.029-4.076h603.648c7.107 0 13.865 1.454 20.029 4.076l-248.75 185.405zM162.898 656.691c-2.458-6.001-3.871-12.534-3.871-19.415v-378.552c0-9.708 2.847-18.678 7.537-26.399l249.426 185.938-253.092 238.428z" />
<glyph unicode="&#xe91c;" glyph-name="myaxa-fire" d="M570.86 669.983c-32.44 44.257-39.711 84.275-40.223 142.971 0 0-99.062-68.649-74.22-161.178 6.083-22.651 17.244-44.646 20.439-68.997 5.755-43.909-0.307-97.423-49.111-89.723-19.681 3.113-40.182 17.080-43.684 53.985-2.355 24.904-17.572 58.061-17.572 58.061s-0.655-17.101-18.924-49.295c-25.047-44.114-54.559-116.593-53.719-212.337 1.208-141.148 117.084-258.232 217.784-260.383 102.175-2.171 216.023 106.844 218.44 266.383 4.116 144.302-113.193 254.996-159.212 320.512zM517.571 106.721c-46.94 0.983-97.935 55.583-96.051 121.303 3.42 118.579 102.523 218.747 102.523 218.747 0.246-27.341 6.001-50.893 21.115-71.516 19.538-35.348 72.52-80.753 70.615-147.968-1.106-74.363-50.606-121.59-98.202-120.566z" />
<glyph unicode="&#xe91d;" glyph-name="myaxa-flask" d="M662.467 720.507c-9.236-6.164-19.845-9.236-31.805-9.236h-3.604c0-0.696 0-1.536 0-2.56v-234.496l214.999-283.238c14.377-19.169 20.193-40.202 17.449-63.119-3.42-22.917-14.705-42.066-33.853-57.467-19.497-15.401-42.086-23.081-67.727-23.081l-466.944-2.56c-25.661-0.348-48.23 7.168-67.727 22.569-19.497 15.053-30.966 34.222-34.386 57.467-3.42 22.917 2.048 43.95 16.425 63.099l217.047 286.31v234.516c0 1.024 0 1.884 0 2.56h-5.161c-11.981 0-22.569 3.072-31.805 9.236-2.396 1.72-4.772 3.584-7.188 5.632-10.26 9.585-15.401 21.033-15.401 34.386 0 14.029 5.14 25.825 15.401 35.41 10.936 9.585 23.941 14.377 38.994 14.377h213.463c15.053 0 27.873-4.792 38.482-14.356 10.936-9.585 16.425-21.381 16.425-35.41 0-13.332-5.468-24.801-16.425-34.386-2.048-2.048-4.26-3.932-6.656-5.652z" />
<glyph unicode="&#xe91e;" glyph-name="myaxa-flat-car" d="M919.204 380.15v38.625h0.655c-4.772 24.822-23.388 81.408-216.207 81.408 0 0-97.608 86.446-156.324 97.444-27.689 5.181-174.223 39.424-429.322-150.364-4.301-3.195-6.595-9.871-7.598-18.207-6.738-3.318-11.489-10.26-11.121-18.207l0.102-2.212c0.369-7.864 5.325-14.295 12.186-16.998 0.492-3.973 1.065-7.844 1.638-11.489h-3.584c-2.683 0-4.157-3.461-4.157-7.414v-10.506c0-3.953 1.475-6.902 4.157-6.902h75.428c-0.123-1.577-0.246-3.174-0.246-4.792 0-31.949 25.887-57.815 57.836-57.815 31.928 0 57.815 25.887 57.815 57.815 0 1.618-0.102 3.215-0.246 4.792h413.696c-0.123-1.577-0.246-3.174-0.246-4.792 0-31.949 25.887-57.815 57.836-57.815 31.928 0 57.815 25.887 57.815 57.815 0 1.618-0.102 3.215-0.246 4.792h90.112c2.662 0.020 5.509 2.97 5.509 6.902v10.506c0.041 3.953-2.806 7.414-5.489 7.414z" />
<glyph unicode="&#xe91f;" glyph-name="myaxa-flat-house" d="M816.005 417.792l32.195-32.010 50.074 53.33-386.273 387.523-188.703-189.317-43.786 43.54h-71.516v-159.212l-82.268-82.534 53.678-53.33 28.59 28.733v-345.149h608.010v316.416z" />
<glyph unicode="&#xe920;" glyph-name="myaxa-flat-savings" d="M747.254 777.626h-472.576c-26.767 0-48.476-21.709-48.476-48.476v-472.576c0-26.767 21.709-48.476 48.476-48.476h472.576c25.682 0 46.49 20.029 48.148 45.281-17.121 4.198-29.86 19.517-29.86 37.929v65.27c0 18.534 12.902 33.956 30.188 38.031v171.971c-17.285 4.076-30.188 19.497-30.188 38.031v65.27c0 18.534 12.902 33.956 30.188 38.031v21.197c-0.020 26.808-21.709 48.517-48.476 48.517zM403.272 343.572c-75.694 0-137.073 61.379-137.073 137.073s61.379 137.073 137.073 137.073c75.694 0 137.073-61.379 137.073-137.073s-61.379-137.073-137.073-137.073zM690.463 476.529v-93.164c0-12.616-10.22-22.835-22.835-22.835s-22.835 10.22-22.835 22.835v98.304c-21.053 10.772-35.656 32.42-35.717 57.713 0 0.061 0 0.123 0 0.184-0.041 35.983 29.102 65.208 65.085 65.27 36.045 0.102 65.352-29.041 65.454-65.085 0.082-30.515-20.869-55.992-49.152-63.222zM504.443 480.645c0-55.875-45.296-101.171-101.171-101.171s-101.171 45.296-101.171 101.171c0 55.875 45.296 101.171 101.171 101.171s101.171-45.296 101.171-101.171zM830.812 852.685h-639.672c-28.836 0-52.224-23.388-52.224-52.224v-639.672c0-28.836 23.388-52.224 52.224-52.224h26.112v-26.112c0-21.627 17.531-39.158 39.158-39.158s39.158 17.531 39.158 39.158v26.112h430.797v-26.112c0-21.627 17.531-39.158 39.158-39.158s39.158 17.531 39.158 39.158v26.112h26.112c28.836 0 52.224 23.388 52.224 52.224v639.693c0 28.836-23.368 52.204-52.204 52.204zM843.858 604.652c0-17.019-10.936-31.375-26.112-36.762v-174.51c15.176-5.386 26.112-19.743 26.112-36.762v-65.27c0-17.019-10.936-31.375-26.112-36.762v-16.261c0-27.443-21.258-49.705-48.169-51.814-1.352 0.143-2.662 0.41-4.055 0.41-2.724 0-5.386-0.287-7.967-0.819h-493.199c-2.58 0.532-5.222 0.819-7.967 0.819-1.393 0-2.703-0.266-4.055-0.41-26.911 2.109-48.169 24.351-48.169 51.814v509.133c0 28.836 23.388 52.224 52.224 52.224h509.133c28.836 0 52.224-23.388 52.224-52.224v-40.755c15.176-5.386 26.112-19.743 26.112-36.762v-65.29z" />
<glyph unicode="&#xe921;" glyph-name="myaxa-glassbreakage" d="M763.843 470.262l-65.577 40.735-3.625 0.348-12.268 1.126 34.55 64.123-56.238-62.116-45.732 4.178-18.596 11.325-27.423 19.231 51.917 72.417-0.246 3.277-4.321 55.276 79.278 89.743-90.706-83.333-1.27-1.27-0.389-2.867-7.025-51.364-60.826-62.587-42.455-20.582-19.927 21.77-13.312-12.165-4.71 48.824 15.36 86.159 1.004 5.673-2.888 3.154-76.452 74.342 56.484-82.33-23.941-82.821-0.205-0.737-0.184-3.031-3.604-58.716-94.556 45.65-114.299-1.331 106.271-22.958 65.434-44.237-10.117-63.386-177.971-123.023 185.139 86.979 32.358-1.987-9.626-50.319-73.523-21.77 69.98 3.256-24.822-129.843 64.102 163.738 5.161-18.616 51.016 14.131 103.649-309.371-43.827 225.26 35.676 66.191-40.243-44.421-12.124 57.856 49.603-10.199 176.783-156.856-158.228 192.86-16.507 59.556 63.672 20.111 38.42 0.963 73.892-30.536 2.499 2.744 47.084 52.122-51.569-40.346zM505.364 427.418l-38.195-16.364-12.022 43.377-37.663 2.335-1.925 17.060-16.241 19.026 30.024 44.524 27.996-20.5 26.112 16.015 40.366-20.193 18.227 27.73 35.738-46.408-29.696-26.46 13.681-65.208-56.402 25.068z" />
<glyph unicode="&#xe922;" glyph-name="myaxa-health" d="M951.89 595.825c0 123.556-102.932 223.703-229.929 223.703-89.682 0-167.158-50.053-205.066-122.921-37.929 72.868-115.405 122.921-205.066 122.921-126.976 0-229.908-100.168-229.908-223.703 0-0.717 0.102-1.393 0.123-2.109-1.147-24.33-0.307-260.198 434.852-507.29l0.020-0.164c0.020 0.020 0.082 0.041 0.123 0.082 0.041-0.041 0.082-0.061 0.123-0.082l0.041 0.164c459.53 260.936 434.688 509.399 434.688 509.399zM685.527 416.031h-93.45l-55.521-122.225-46.1 199.598-25.784-77.373h-116.142c-8.888 0-16.077 7.188-16.077 16.077s7.188 16.077 16.077 16.077h92.959l54.579 163.82 50.463-218.481 24.842 54.661h114.176c8.888 0 16.077-7.188 16.077-16.077-0.020-8.888-7.209-16.077-16.097-16.077z" />
<glyph unicode="&#xe923;" glyph-name="myaxa-lock-outline" d="M512 732.324c-91.075 0-165.151-74.097-165.151-165.151v-82.371h-0.082v-32.707h330.383v115.077c0 91.054-74.076 165.151-165.151 165.151zM657.797 484.782h-287.314v75.858c0 85.791 62.28 147.313 141.496 147.313s145.818-61.522 145.818-147.313v-75.858zM752.271 484.782v89.907c0 132.485-107.786 240.271-240.271 240.271s-240.271-107.786-240.271-240.271v-89.907h-52.265v-403.763h585.093v403.763h-52.285zM774.636 113.725h-525.271v338.35h45.158v115.077c0 124.191 93.286 225.219 217.477 225.219s218.931-100.045 218.931-224.236v-115.077l43.704-0.983v-338.35z" />
<glyph unicode="&#xe924;" glyph-name="myaxa-lock" d="M235.5 577.434h102.38c5.345 97.874 57.324 204.206 184.279 204.206 122.429 0 177.5-112.087 184.259-204.206h102.38c-1.843 174.039-95.601 303.104-286.638 304.763-189.809 1.823-286.659-133.612-286.659-304.763zM174.080 479.764v-348.058c0-50.995 11.469-66.13 61.42-66.13h573.276c53.412 0 61.42 14.316 61.42 66.13v348.058c0 50.34-9.421 56.73-61.42 56.73h-573.276c-49.336 0-61.42-9.032-61.42-56.73zM587.244 336.445c0-28.877-18.637-55.603-44.442-64.205l40.755-104.284h-122.839l40.735 104.284c-25.805 8.602-44.421 34.161-44.421 63.017 0 36.024 29.082 65.7 65.085 65.7 36.045 0 65.126-28.488 65.126-64.512z" />
<glyph unicode="&#xe925;" glyph-name="myaxa-pencil" d="M324.669 793.866c-22.712 22.733-45.425 0-45.425 0l-113.152-113.111c0 0-22.712-22.733 0-45.445l66.929-66.908 158.556 158.577-66.908 66.888zM800.42 318.116l-158.945-158.945 192.676-33.3zM755.814 317.358c12.493 12.554 12.595 32.809 0 45.384l-317.133 317.153c-12.513 12.493-32.604 12.759-45.404-0.041l-113.152-113.172c-12.554-12.493-12.657-32.788-0.041-45.363l317.153-317.153c12.513-12.534 32.584-12.759 45.384 0.041l113.193 113.152z" />
<glyph unicode="&#xe926;" glyph-name="myaxa-phone" d="M834.294 255.119l-3.85 7.68c-10.752 25.375-142.991 63.816-153.764 64.594l-8.458-0.758c-16.138-3.072-33.833-17.695-68.424-47.657-6.922-6.164-16.138-7.7-24.596-3.072-45.363 25.375-100.721 76.124-128.41 106.865-29.983 33.055-66.109 87.654-83.026 131.461-3.072 8.458 0 17.674 6.144 23.839 39.219 35.369 56.115 52.285 57.672 70.738 0.758 10.772-22.303 146.842-46.121 159.928l-6.922 4.608c-15.38 9.994-38.441 24.596-63.816 19.21-6.144-1.536-12.308-3.85-17.674-6.922-16.916-10.772-59.208-39.977-78.418-77.66-11.53-23.839-16.916-239.882 144.548-422.093 159.908-180.675 357.499-188.375 386.724-182.211h0.778l2.294 0.758c39.977 14.602 73.81 52.285 86.897 68.424 23.798 28.447 7.66 63.037-1.577 82.268z" />
<glyph unicode="&#xe927;" glyph-name="myaxa-profile-outline" d="M512 872.325c-115.999 0-210.002-94.024-210.002-210.002 0-115.999 94.024-276.050 210.002-276.050 115.999 0 210.002 160.072 210.002 276.050s-94.003 210.002-210.002 210.002zM512 412.856c-103.301 0-187.023 142.561-187.023 245.842s83.722 187.044 187.023 187.044 187.023-83.743 187.023-187.023c0-103.301-83.722-245.862-187.023-245.862zM670.761 465.859c-42.373-54.436-97.915-92.918-158.761-92.918s-116.388 38.482-158.761 92.918c-135.475-55.337-229.908-170.598-229.908-249.119 0-106.639 174.019-193.065 388.669-193.065 214.671 0 388.669 86.446 388.669 193.065 0 78.52-94.413 193.782-229.908 249.119zM512 37.99c-191.181 0-365.896 86.856-365.896 181.821 0 69.939 84.111 162.693 204.759 211.988 37.745-48.476 106.947-82.76 161.137-82.76s123.392 44.155 161.137 92.631c120.668-49.275 204.759-151.921 204.759-221.86 0-94.986-174.715-181.821-365.896-181.821z" />
<glyph unicode="&#xe928;" glyph-name="myaxa-protection" d="M953.692 338.391c0 50.422-60.621 124.416-147.599 159.928-27.197-34.939-62.853-59.658-101.929-59.658-26.829 0-51.978 11.735-73.933 30.372 2.908 4.792 5.816 9.585 8.417 14.561 17.961 34.386 28.611 72.684 28.611 106.086 0 85.75-69.509 155.259-155.259 155.259-84.357 0-152.863-67.318-155.054-151.142-0.266 3.973-0.901 8.069-0.901 11.919 0 53.187 26.092 100.168 66.068 129.188-24.719 28.815-61.338 47.145-102.298 47.145-74.465 0-134.82-60.355-134.82-134.82s60.355-177.213 134.82-177.213c21.852 0 42.353 9.175 60.6 23.552 2.97-6.328 6.246-12.513 9.708-18.596-21.135-16.937-44.892-27.812-70.308-27.812-39.076 0-74.711 24.699-101.929 59.658-86.979-35.533-147.599-109.507-147.599-159.928 0-52.367 65.577-96.952 158.024-115.098 6.144-73.892 128.307-132.874 278.548-132.874 142.909 0 260.547 53.371 276.992 122.184 98.652 16.527 169.841 62.689 169.841 117.289zM785.428 245.617c-5.898 55.972-71.741 132.956-164.536 170.865-30.433-39.096-70.328-66.724-114.012-66.724-43.704 0-83.579 27.628-114.012 66.724-86.897-35.492-150.139-105.288-162.693-159.969-0.184 1.946-0.737 3.85-0.737 5.816 0 56.402 67.83 139.162 165.11 178.913 30.433-39.096 70.308-66.724 114.012-66.724s83.579 27.628 114.012 66.724c97.3-39.731 165.11-122.511 165.11-178.913 0.020-5.673-0.901-11.223-2.253-16.712zM675.471 605.737c0-37.519-13.025-81.060-34.693-118.784 18.903-15.667 40.468-25.457 63.406-25.457 74.465 0 134.82 102.769 134.82 177.213 0 74.465-60.355 134.82-134.82 134.82-36.864 0-70.226-14.828-94.556-38.789 39.834-29.020 65.843-75.919 65.843-129.004z" />
<glyph unicode="&#xe929;" glyph-name="myaxa-radio-checked" d="M510.976 808.509c-203.674 0-368.763-165.11-368.763-368.763s165.089-368.783 368.763-368.783 368.763 165.11 368.763 368.763-165.089 368.783-368.763 368.783zM510.976 135.823c-167.854 0-303.923 136.069-303.923 303.923s136.069 303.923 303.923 303.923c167.854 0 303.923-136.069 303.923-303.923s-136.069-303.923-303.923-303.923zM721.428 439.747c0-116.23-94.223-210.452-210.452-210.452s-210.452 94.223-210.452 210.452c0 116.23 94.223 210.452 210.452 210.452s210.452-94.223 210.452-210.452z" />
<glyph unicode="&#xe92a;" glyph-name="myaxa-radio-unchecked" d="M510.976 808.509c-203.674 0-368.763-165.11-368.763-368.763s165.089-368.783 368.763-368.783 368.763 165.11 368.763 368.763-165.089 368.783-368.763 368.783zM510.976 135.823c-167.854 0-303.923 136.069-303.923 303.923s136.069 303.923 303.923 303.923c167.854 0 303.923-136.069 303.923-303.923s-136.069-303.923-303.923-303.923z" />
<glyph unicode="&#xe92b;" glyph-name="myaxa-ribbon" d="M95.58 676.7h821.862v-457.38h-821.862l71.475 231.076-71.475 226.304z" />
<glyph unicode="&#xe92c;" glyph-name="myaxa-savings" d="M463.237 534.344l15.892 14.152c3.625 3.236 3.953 8.847 0.717 12.493l-2.99 3.359c-3.236 3.625-8.847 3.953-12.493 0.717l-15.606-13.906c-12.943 11.469-29.553 18.801-47.882 20.070v22.303c0 4.874-3.973 8.847-8.847 8.847h-4.506c-4.874 0-8.847-3.973-8.847-8.847v-23.736c-13.578-2.826-25.887-9.093-36.045-17.797l-16.978 18.637c-3.277 3.604-8.909 3.85-12.493 0.573l-3.338-3.031c-3.604-3.277-3.85-8.909-0.573-12.493l18.575-20.378c-8.028-12.104-12.841-26.481-13.353-41.984l-34.673-0.717c-4.874-0.102-8.765-4.157-8.663-9.032l0.102-4.506c0.102-4.874 4.157-8.765 9.032-8.663l36.516 0.758c2.396-9.728 6.513-18.76 12.083-26.726l-28.467-25.334c-3.625-3.236-3.953-8.847-0.717-12.493l2.99-3.359c3.236-3.625 8.847-3.953 12.493-0.737l28.733 25.58c9.892-8.131 21.75-13.947 34.755-16.671v-37.417c0-4.874 3.973-8.847 8.847-8.847h4.506c4.874 0 8.847 3.973 8.847 8.847v35.983c11.715 0.819 22.774 4.055 32.604 9.318l23.613-25.928c3.277-3.604 8.909-3.85 12.493-0.573l3.338 3.031c3.604 3.277 3.85 8.909 0.573 12.493l-22.036 24.166c11.489 11.121 19.722 25.6 23.020 41.882l25.231 0.532c4.874 0.102 8.765 4.157 8.663 9.032l-0.102 4.506c-0.102 4.874-4.157 8.765-9.032 8.663l-23.47-0.492c-0.963 13.885-5.427 26.706-12.513 37.724zM733.573 618.721v67.42c0 12.677 5.96 23.859 15.094 31.273-7.967 7.168-18.412 11.653-29.983 11.653h-438.804c-24.863 0-45.015-20.152-45.015-45.015v-438.804c0-24.863 20.152-45.015 45.015-45.015h438.804c24.863 0 45.015 20.152 45.015 45.015v10.916c-17.306 4.588-30.126 20.214-30.126 38.953v67.42c0 18.739 12.82 34.365 30.126 38.953v178.258c-17.306 4.628-30.126 20.234-30.126 38.973zM389.775 349.082c-78.193 0-141.558 63.386-141.558 141.558 0 78.193 63.386 141.558 141.558 141.558s141.558-63.386 141.558-141.558c0-78.172-63.386-141.558-141.558-141.558zM656.056 486.4v-96.215c0-13.025-10.568-23.593-23.593-23.593s-23.593 10.568-23.593 23.593v101.519c-21.75 11.141-36.823 33.485-36.884 59.597 0 0.061 0 0.123 0 0.184-0.041 37.171 30.044 67.338 67.215 67.42 37.233 0.102 67.502-29.983 67.604-67.215 0.082-31.498-21.565-57.815-50.749-65.29zM830.73 828.948h-637.46c-28.733 0-52.040-23.306-52.040-52.040v-637.46c0-28.733 23.306-52.040 52.040-52.040h26.010v-26.010c0-21.545 17.469-39.035 39.035-39.035s39.035 17.469 39.035 39.035v26.010h429.322v-26.010c0-21.545 17.469-39.035 39.035-39.035 21.545 0 39.035 17.469 39.035 39.035v26.010h26.010c28.733 0 52.040 23.306 52.040 52.040v637.46c-0.020 28.733-23.327 52.040-52.060 52.040zM814.469 618.721c0-17.019-10.547-31.519-25.416-37.499v-181.187c14.889-5.98 25.416-20.48 25.416-37.499v-67.42c0-17.019-10.547-31.519-25.416-37.499v-33.423c0-27.238-22.077-49.316-49.316-49.316h-480.87c-27.238 0-49.316 22.077-49.316 49.316v480.87c0 27.238 22.077 49.316 49.316 49.316h480.87c20.173 0 37.458-12.145 45.097-29.491 17.060-4.751 29.635-20.234 29.635-38.81v-67.359z" />
<glyph unicode="&#xe92d;" glyph-name="myaxa-tick" d="M867.799 694.211c-24.781 24.76-64.922 24.76-89.702 0l-363.172-363.172-169.021 169.021c-24.781 24.76-64.922 24.76-89.702 0-24.76-24.781-24.76-64.922 0-89.702l205.681-205.722c10.445-10.445 23.654-16.2 37.253-17.838 21.893-7.639 47.124-3.195 64.942 14.008l403.702 403.702c24.781 24.781 24.781 64.942 0.020 89.702z" />
<glyph unicode="&#xe92e;" glyph-name="profile-circle" d="M512 890.88c-244.593 0-442.88-198.287-442.88-442.88s198.287-442.88 442.88-442.88c244.593 0 442.88 198.287 442.88 442.88s-198.287 442.88-442.88 442.88zM512 677.376c61.092 0 110.612-49.521 110.612-110.612s-49.521-145.408-110.612-145.408-110.612 84.316-110.612 145.408c0 61.092 49.521 110.612 110.612 110.612zM512 218.624c-113.070 0-204.739 45.527-204.739 101.704 0 41.37 49.746 102.072 121.098 131.215 22.323-28.672 51.569-48.947 83.62-48.947s61.297 20.275 83.62 48.947c71.373-29.143 121.098-89.866 121.098-131.215 0.041-56.177-91.628-101.704-204.698-101.704z" />
<glyph unicode="&#xe92f;" glyph-name="profile" d="M733.143 699.392c0-122.143-99-290.714-221.143-290.714s-221.164 168.571-221.164 290.714c0 122.143 99.021 221.164 221.164 221.164s221.143-99.021 221.143-221.164zM679.199 469.053c-44.626-57.324-103.117-97.853-167.199-97.853s-122.573 40.53-167.199 97.853c-142.664-58.286-242.115-179.651-242.115-262.349 0-112.292 183.255-203.325 409.313-203.325s409.313 91.034 409.313 203.325c0 82.698-99.43 204.083-242.115 262.349z" />
<glyph unicode="&#xe930;" glyph-name="saving-piggy" d="M861.082 519.823c-5.202 10.015-4.157 15.872-2.867 17.551 0.225 0.328 0.532 0.737 1.7 0.532 2.703-0.532 8.131-4.649 11.264-16.712 1.372-5.161 2.007-10.26 1.946-15.114-4.997 3.584-9.236 8.274-12.042 13.742zM943.596 515.543c-5.98 4.751-14.705 3.666-19.436-2.335-7.741-9.83-16.404-13.517-23.859-14.5 0.963 9.523 0.246 19.517-2.355 29.471-5.263 20.111-17.51 33.874-32.748 36.884-11.203 2.171-22.405-2.048-29.164-11.059-8.95-11.96-8.786-29.041 0.451-46.899 6.205-11.981 15.995-21.729 27.628-28.099-7.844-9.81-23.593-14.5-38.195-12.104-100.577 195.4-359.834 199.762-508.027 141.742-40.776 6.062-122.962 10.015-192.86-21.422-10.691-4.813-8.069-14.070-2.621-24.474 16.2-30.802 33.423-49.213 68.239-68.833-20.992-27.771-32.543-43.315-41.472-82.637-4.26-18.801-11.817-31.089-22.159-40.55-11.223-10.301-17.818-12.575-33.341-16.159-21.75-5.018-24.719-13.988-23.962-30.228 1.085-23.306 7.844-48.968 18.596-71.475 5.796-12.104 12.8-22.61 20.951-30.925 7.803-7.946 16.63-13.885 26.399-17.265 18.371-6.369 37.478-7.393 49.009-8.704 25.088-36.721 46.182-59.556 88.392-84.173 2.335-29.123-1.741-65.679-3.154-83.087 15.012 0 86.385 0 96.358 0 11.387 0 16.773 3.42 23.88 12.37 7.393 9.298 15.913 30.618 20.89 42.271 44.032-6.062 111.739-4.628 153.477 1.761-0.164-17.695-3.707-44.687-5.775-56.402 10.793 0 77.763 0 96.031 0 15.319 0 22.61 7.107 29.983 16.077 81.306 99.103 194.908 215.060 153.723 393.4 23.204 0.819 42.516 13.251 53.289 32.707 20.808-1.311 40.468 7.782 54.17 25.252 4.731 5.98 3.666 14.684-2.335 19.395zM200.069 360.98c-11.796-0.655-21.832 8.417-22.446 20.193-0.655 11.796 8.417 21.832 20.193 22.467 11.796 0.594 21.852-8.417 22.446-20.214 0.655-11.756-8.376-21.832-20.193-22.446zM633.16 545.669c-88.33 39.178-196.465 37.929-285.594-3.564l-13.169 28.221c97.526 45.404 215.081 46.51 311.398 3.789l-12.636-28.447zM609.649 881.5c-31.908 0-57.754-25.866-57.754-57.754 0-31.908 25.866-57.754 57.754-57.754 31.908 0 57.754 25.866 57.754 57.754 0.020 31.887-25.846 57.754-57.754 57.754zM609.649 779.878c-24.228 0-43.848 19.64-43.848 43.848 0 24.228 19.64 43.848 43.848 43.848 24.228 0 43.848-19.64 43.848-43.848 0.020-24.207-19.62-43.848-43.848-43.848zM647.434 823.747c0-20.868-16.917-37.786-37.786-37.786s-37.786 16.917-37.786 37.786c0 20.868 16.917 37.786 37.786 37.786s37.786-16.917 37.786-37.786zM533.381 755.958c-38.564 0-69.816-31.252-69.816-69.816s31.252-69.816 69.816-69.816c38.564 0 69.816 31.252 69.816 69.816 0.020 38.564-31.252 69.816-69.816 69.816zM533.381 633.119c-29.286 0-53.023 23.736-53.023 53.023s23.736 53.023 53.023 53.023c29.286 0 53.023-23.736 53.023-53.023s-23.736-53.023-53.023-53.023zM579.072 686.141c0-25.234-20.457-45.691-45.691-45.691s-45.691 20.457-45.691 45.691c0 25.234 20.457 45.691 45.691 45.691s45.691-20.457 45.691-45.691z" />
<glyph unicode="&#xe931;" glyph-name="shake_hands" d="M517.693 193.004v0 0zM513.311 240.148c0.102-0.696-2.232 20.152 0 0v0zM202.609 346.685c-78.725 0-13.312-125.010 31.457-59.679 2.212 7.578 4.424 15.155 6.615 22.733-0.655 20.439-17.592 36.946-38.072 36.946zM437.76 187.924c34.365-46.817 80.65 13.66 75.551 52.224-8.622 77.578-116.060 2.99-75.551-52.224zM360.591 315.126l-0.246 0.020c-7.885-27.607-41.247-135.823 33.812-105.308 26.808 10.895 42.086 74.117 42.086 98.693 0 46.039-65.925 50.053-75.653 6.595zM743.547 625.664c-2.191 0.369-4.383 0.737-6.41 1.126-3.543 0.676-6.799 1.393-9.83 2.089-10.793 2.56-18.248 5.14-22.508 6.84-44.36 20.705-87.921 44.093-132.055 65.393-26.481 12.78-55.501 32.788-84.337 39.649-27.136 6.41-67.42-23.327-89.743-34.12-26.911-13.005-77.742-26.317-77.742-62.956 0-30.986-4.403-65.167 1.556-95.785 5.714-29.368 43.028-42.926 63.898-19.169 18.964 21.606 10.711 66.478 10.711 92.856l1.597 0.778c1.638 0.328 3.297 0.655 5.304 1.126 30.904 7.107 62.915 29.45 73.339 36.618l1.147 0.553 1.311 0.492c0.102 0.102 0.102 0.123 0.205 0.205 76.493-35.901 152.986-71.803 229.499-107.725 30.863-14.479 72.233-46.469 92.652-74.834 27.832-38.687 51.671-143.032-34.796-121.917v-64.41l165.396 55.644c0.717 12.145 13.496 263.188-189.194 277.545zM267.53 333.988l-0.225 0.061c-7.557-26.010-27.32-63.078 1.393-84.152 46.428-34.079 74.957 45.22 74.957 79.012 0.020 47.124-67.666 49.705-76.124 5.079zM776.765 480.174c-21.565 21.893-53.924 46.367-81.715 59.392-71.721 33.587-143.38 67.318-215.040 101.007l-2.888-1.372c-9.523-6.328-35.799-23.736-61.235-29.389l-0.082-39.629c1.659-7.352 2.171-15.749-0.041-24.494-0.676-2.703-1.434-4.977-2.212-6.984-17.551-49.828-87.613-54.804-108.605-2.683-10.404 25.825-2.847 63.386-2.847 90.788h-3.686c-177.029 0-204.186-168.591-207.544-243.159v-34.775l58.839-19.784c16.282 41.882 74.588 48.886 99.922 11.551 14.438 51.692 88.31 62.423 109.036 8.684 44.462 43.315 110.285-6.656 92.795-61.030 36.127 16.773 83.476-10.65 80.998-52.367l0.799-0.287c-1.925-16.036-6.328-36.516-14.090-50.975 7.762-41.759 70.144-39.772 75.018 2.58 1.147 17.9 9.114 66.662-8.458 79.012-34.959 24.617-69.939 49.213-104.899 73.83l0.082 0.246-4.239 2.99 0.205 0.287c-2.478 1.659-4.219 4.342-4.219 7.557 0 5.12 4.137 9.257 9.257 9.257 2.089 0 3.912-0.819 5.448-1.987l0.184 0.246c30.536-21.606 61.051-43.213 91.587-64.84 28.815-20.398 34.98-40.407 34.304-75.694 23.491-20.541 60.969-4.465 62.894 26.358 0.307 5.755 0.369 11.551 0.164 17.326l0.225 0.082c0 50.483-11.919 61.153-50.688 88.187-37.847 26.399-75.674 52.777-113.521 79.196l0.266 0.369c-2.417 1.659-4.096 4.321-4.096 7.496 0 5.1 4.137 9.257 9.257 9.257 2.007 0 3.768-0.778 5.284-1.864l0.102 0.143c39.096-27.3 78.193-54.579 117.289-81.879 43.622-30.454 54.907-44.667 54.907-101.54 57.59-26.235 52.982 53.309 52.982 83.374-0.020 28.529-5.407 37.827-27.279 53.125-56.689 39.629-113.377 79.258-170.066 118.886l0.061 0.102c-2.458 1.659-4.178 4.342-4.178 7.537 0 5.1 4.137 9.257 9.257 9.257 2.028 0 3.809-0.799 5.345-1.905l0.020 0.041c17.592-10.506 34.038-23.183 50.831-34.939v-0.020c26.993-16.712 52.449-36.311 78.377-54.579 23.45-16.527 66.908-35.738 74.301-64.901 3.011-1.516 6.124-2.396 9.359-2.662 71.209-9.626 23.613 83.067 2.232 105.574z" />
</font>
</defs>
</svg>
